<?xml version="1.0" encoding="UTF-8"?>
<svg width="52px" height="33px" viewBox="0 0 52 33" version="1.1" xmlns="http://www.w3.org/2000/svg" xmlns:xlink="http://www.w3.org/1999/xlink">
    <!-- Generator: Sketch 43.1 (39012) - http://www.bohemiancoding.com/sketch -->
    <title>logo</title>
    <desc>Created with Sketch.</desc>
    <defs></defs>
    <g id="Symbols" stroke="none" stroke-width="1" fill="#A9ACAF" fill-rule="evenodd">
        <g id="首页-侧边" transform="translate(-20.000000, -14.000000)" fill="#A9ACAF">
            <g id="logo" transform="translate(20.000000, 14.000000)">
                <g id="Group-7-Copy-2">
                    <path d="M20.8115827,18.4339412 L22.6073175,18.9101065 C22.148832,20.3576489 21.5948287,21.6718651 20.9453077,22.8337084 L24.7278128,22.8337084 L24.7278128,24.5098101 L8.48978577,24.5098101 L8.48978577,22.8337084 L18.9967444,22.8337084 C19.6844726,21.5956786 20.276683,20.1290896 20.8115827,18.4339412 Z M12.138566,18.6053607 C12.6734657,19.6148311 13.1510547,20.7766744 13.5904366,22.0908905 L11.9475303,22.509916 C11.5654591,21.3290261 11.0878701,20.205276 10.4765561,19.1386658 L12.138566,18.6053607 Z M16.5514886,18.2244285 C16.9908705,19.2910387 17.3729417,20.5290684 17.7168058,21.919471 L16.0930031,22.3194499 C15.7682426,21.0814201 15.3670678,19.9005302 14.8703752,18.7577336 L16.5514886,18.2244285 Z M11.5845627,16.5483267 C10.6675917,16.9292589 9.71241368,17.3101911 8.7190285,17.6720768 L7.84026468,16.091208 C11.1260772,15.0245978 13.8387829,13.7103817 16.0165889,12.1485595 L17.1628025,12.1485595 C19.5316441,13.8246613 22.2443498,15.1579241 25.3391267,16.1293013 L24.4603629,17.6911234 C23.4478742,17.3482844 22.4926961,16.9673521 21.6139323,16.5673733 L21.6139323,17.9006361 L11.5845627,17.9006361 L11.5845627,16.5483267 Z M21.0790326,16.3197674 C19.3979192,15.5198097 17.8887379,14.624619 16.5896957,13.6151486 C15.3288607,14.6055724 13.8196793,15.5007631 12.0812553,16.3197674 L21.0790326,16.3197674 Z M11.0878701,10.5867374 C10.6102811,11.5009748 10.0753813,12.3580723 9.48317095,13.1199367 L7.91667893,12.1295129 C9.10109972,10.6629239 9.92255285,9.10110177 10.4192454,7.425 L12.1767731,7.80593222 C12.0430481,8.22495766 11.9093232,8.60588989 11.7755983,8.98682211 L16.532385,8.98682211 L16.532385,10.5867374 L14.1444399,10.5867374 C14.4118897,11.1581358 14.6220289,11.6914409 14.793961,12.1866528 L13.1510547,12.7770977 C12.921812,12.0152333 12.6543621,11.291462 12.3487051,10.5867374 L11.0878701,10.5867374 Z M19.0922622,10.5867374 C18.7866052,11.196229 18.4427411,11.7866739 18.0606699,12.319979 L16.532385,11.3486019 C17.4111488,10.1296188 18.0606699,8.83444922 18.4427411,7.425 L20.1620617,7.80593222 C20.0474403,8.22495766 19.9137154,8.60588989 19.7799904,8.98682211 L25.1480911,8.98682211 L25.1480911,10.5867374 L22.454489,10.5867374 C22.8174567,11.2152756 23.1040101,11.8057205 23.3332528,12.3390257 L21.671243,12.9675638 C21.365586,12.1295129 21.0026183,11.3486019 20.6014436,10.5867374 L19.0922622,10.5867374 Z" id="签-copy-11"></path>
                    <path d="M16.5493357,30.9113924 C24.5323262,30.9113924 31.0038187,24.4591922 31.0038187,16.5 C31.0038187,8.54080775 24.5323262,2.08860759 16.5493357,2.08860759 C8.56634511,2.08860759 2.09485262,8.54080775 2.09485262,16.5 C2.09485262,24.4591922 8.56634511,30.9113924 16.5493357,30.9113924 Z M16.5493357,33 C7.40938996,33 0,25.6126984 0,16.5 C0,7.38730163 7.40938996,0 16.5493357,0 C25.6892814,0 33.0986713,7.38730163 33.0986713,16.5 C33.0986713,25.6126984 25.6892814,33 16.5493357,33 Z" id="Oval-2-Copy-18" fill-rule="nonzero"></path>
                    <path d="M16.6034782,29.1987342 C23.6030569,29.1987342 29.2773365,23.5413703 29.2773365,16.5626582 C29.2773365,9.58394618 23.6030569,3.92658228 16.6034782,3.92658228 C9.60389951,3.92658228 3.92961986,9.58394618 3.92961986,16.5626582 C3.92961986,23.5413703 9.60389951,29.1987342 16.6034782,29.1987342 Z M16.6034782,29.8253165 C9.25681297,29.8253165 3.30116408,23.8874221 3.30116408,16.5626582 C3.30116408,9.23789435 9.25681297,3.3 16.6034782,3.3 C23.9501434,3.3 29.9057923,9.23789435 29.9057923,16.5626582 C29.9057923,23.8874221 23.9501434,29.8253165 16.6034782,29.8253165 Z" id="Oval-2-Copy-19" fill-rule="nonzero"></path>
                </g>
                <g id="Group-6-Copy-4" transform="translate(30.535768, 0.000000)">
                    <path d="M10.3161377,20.625 C4.61869219,20.625 0,16.0079365 0,10.3125 C0,4.61706352 4.61869219,0 10.3161377,0 C16.0135833,0 20.6322755,4.61706352 20.6322755,10.3125 C20.6322755,16.0079365 16.0135833,20.625 10.3161377,20.625 Z M10.3161377,18.7194293 C14.9607944,18.7194293 18.7260326,14.9555189 18.7260326,10.3125 C18.7260326,5.66948113 14.9607944,1.90557065 10.3161377,1.90557065 C5.67148104,1.90557065 1.90624284,5.66948113 1.90624284,10.3125 C1.90624284,14.9555189 5.67148104,18.7194293 10.3161377,18.7194293 Z" id="Combined-Shape"></path>
                    <path d="M3.90273951,8.30551242 C3.90237827,8.28894978 3.90219671,8.27234288 3.90219671,8.25569358 C3.90219671,7.01755522 4.90626023,6.01384576 6.14483535,6.01384576 C7.38341047,6.01384576 8.38747399,7.01755522 8.38747399,8.25569358 C8.38747399,8.27234288 8.38729243,8.28894978 8.38693119,8.30551242 L3.90273951,8.30551242 Z" id="Combined-Shape"></path>
                    <path d="M12.3119793,8.30551242 C12.3116181,8.28894978 12.3114365,8.27234288 12.3114365,8.25569358 C12.3114365,7.01755522 13.3155,6.01384576 14.5540752,6.01384576 C15.7926503,6.01384576 16.7967138,7.01755522 16.7967138,8.25569358 C16.7967138,8.27234288 16.7965322,8.28894978 16.796171,8.30551242 L12.3119793,8.30551242 Z" id="Combined-Shape"></path>
                    <path d="M16.6417052,13.2 C15.5450199,15.596892 13.1251275,17.2622283 10.3161377,17.2622283 C6.51621548,17.2622283 3.42833807,14.2146768 3.36495164,10.4312046 L15.2678839,10.4312046 L15.2678839,10.3125 L19.394339,10.3125 L19.394339,13.2 L16.6417052,13.2 Z" id="Combined-Shape"></path>
                </g>
            </g>
        </g>
    </g>
</svg>